<svg width="48" height="48" viewBox="0 0 48 48" fill="none" xmlns="http://www.w3.org/2000/svg">
<path fill-rule="evenodd" clip-rule="evenodd" d="M19.2841 9.37828C19.7874 9.0273 20.3863 8.83911 21 8.83911C21.6136 8.83911 22.2125 9.0273 22.7159 9.37828C23.2192 9.72927 23.6029 10.2262 23.815 10.802L27.4182 20.582L37.1981 24.1851C37.774 24.3973 38.2709 24.7809 38.6218 25.2843C38.9728 25.7876 39.161 26.3865 39.161 27.0002C39.161 27.6138 38.9728 28.2127 38.6218 28.7161C38.2709 29.2194 37.774 29.603 37.1981 29.8152L27.4181 33.4183L23.815 43.1983C23.6029 43.7741 23.2192 44.271 22.7159 44.622C22.2125 44.973 21.6136 45.1612 21 45.1612C20.3863 45.1612 19.7874 44.973 19.2841 44.622C18.7807 44.271 18.3971 43.7741 18.1849 43.1983L14.5818 33.4183L4.80181 29.8152L5.32037 28.4077L4.80181 29.8152C4.226 29.603 3.72909 29.2194 3.3781 28.7161C3.02711 28.2127 2.83893 27.6138 2.83893 27.0002C2.83893 26.3865 3.02711 25.7876 3.3781 25.2843C3.72909 24.7809 4.226 24.3973 4.80181 24.1851L5.27452 25.4682L4.80181 24.1851L14.5818 20.582L18.1849 10.802L19.5127 11.2912L18.1849 10.802C18.3971 10.2262 18.7807 9.72927 19.2841 9.37828ZM24.6031 21.6191L21 11.8391L19.5925 11.3206L21 11.8391L17.3968 21.6191C17.2467 22.0264 17.0101 22.3963 16.7031 22.7033C16.3962 23.0102 16.0262 23.2469 15.6189 23.397L5.83893 27.0002L5.32037 25.5926L5.83893 27.0002L15.6189 30.6033C16.0262 30.7534 16.3962 30.9901 16.7031 31.297C17.0101 31.604 17.2467 31.9739 17.3968 32.3812L21 42.1612L24.6031 32.3812C24.7532 31.9739 24.9899 31.604 25.2968 31.297C25.6038 30.9901 25.9737 30.7534 26.381 30.6033L36.161 27.0002L26.381 23.397C25.9737 23.2469 25.6038 23.0102 25.2968 22.7033C24.9899 22.3963 24.7532 22.0264 24.6031 21.6191Z" fill="#6A1CFB"/>
<path fill-rule="evenodd" clip-rule="evenodd" d="M33 1.5C33.8284 1.5 34.5 2.17157 34.5 3V12C34.5 12.8284 33.8284 13.5 33 13.5C32.1716 13.5 31.5 12.8284 31.5 12V3C31.5 2.17157 32.1716 1.5 33 1.5Z" fill="#6A1CFB"/>
<path fill-rule="evenodd" clip-rule="evenodd" d="M27 7.5C27 6.67157 27.6716 6 28.5 6H37.5C38.3284 6 39 6.67157 39 7.5C39 8.32843 38.3284 9 37.5 9H28.5C27.6716 9 27 8.32843 27 7.5Z" fill="#6A1CFB"/>
<path fill-rule="evenodd" clip-rule="evenodd" d="M42 12C42.8284 12 43.5 12.6716 43.5 13.5V19.5C43.5 20.3284 42.8284 21 42 21C41.1716 21 40.5 20.3284 40.5 19.5V13.5C40.5 12.6716 41.1716 12 42 12Z" fill="#6A1CFB"/>
<path fill-rule="evenodd" clip-rule="evenodd" d="M37.5 16.5C37.5 15.6716 38.1716 15 39 15H45C45.8284 15 46.5 15.6716 46.5 16.5C46.5 17.3284 45.8284 18 45 18H39C38.1716 18 37.5 17.3284 37.5 16.5Z" fill="#6A1CFB"/>
</svg>