<svg width="48" height="48" viewBox="0 0 48 48" fill="none" xmlns="http://www.w3.org/2000/svg">
<path fill-rule="evenodd" clip-rule="evenodd" d="M24 34.5C24.8284 34.5 25.5 35.1716 25.5 36V42C25.5 42.8284 24.8284 43.5 24 43.5C23.1716 43.5 22.5 42.8284 22.5 42V36C22.5 35.1716 23.1716 34.5 24 34.5Z" fill="#6A1CFB"/>
<path d="M15.75 28.5C16.9926 28.5 18 27.4926 18 26.25C18 25.0074 16.9926 24 15.75 24C14.5074 24 13.5 25.0074 13.5 26.25C13.5 27.4926 14.5074 28.5 15.75 28.5Z" fill="#6A1CFB"/>
<path d="M32.25 28.5C33.4926 28.5 34.5 27.4926 34.5 26.25C34.5 25.0074 33.4926 24 32.25 24C31.0074 24 30 25.0074 30 26.25C30 27.4926 31.0074 28.5 32.25 28.5Z" fill="#6A1CFB"/>
<path fill-rule="evenodd" clip-rule="evenodd" d="M24 7.5C24.8284 7.5 25.5 8.17157 25.5 9V16.5C25.5 17.3284 24.8284 18 24 18C23.1716 18 22.5 17.3284 22.5 16.5V9C22.5 8.17157 23.1716 7.5 24 7.5Z" fill="#6A1CFB"/>
<path fill-rule="evenodd" clip-rule="evenodd" d="M19.9393 31.9393C20.5251 31.3536 21.4749 31.3536 22.0607 31.9393L24 33.8787L25.9393 31.9393C26.5251 31.3536 27.4749 31.3536 28.0607 31.9393C28.6464 32.5251 28.6464 33.4749 28.0607 34.0607L25.0607 37.0607C24.4749 37.6464 23.5251 37.6464 22.9393 37.0607L19.9393 34.0607C19.3536 33.4749 19.3536 32.5251 19.9393 31.9393Z" fill="#6A1CFB"/>
<path fill-rule="evenodd" clip-rule="evenodd" d="M18 8.43921C18.8284 8.43921 19.5 9.11078 19.5 9.93921V16.5001C19.5 17.3285 18.8284 18.0001 18 18.0001C17.1716 18.0001 16.5 17.3285 16.5 16.5001V9.93921C16.5 9.11078 17.1716 8.43921 18 8.43921Z" fill="#6A1CFB"/>
<path fill-rule="evenodd" clip-rule="evenodd" d="M30 8.43921C30.8284 8.43921 31.5 9.11078 31.5 9.93921V16.5001C31.5 17.3285 30.8284 18.0001 30 18.0001C29.1716 18.0001 28.5 17.3285 28.5 16.5001V9.93921C28.5 9.11078 29.1716 8.43921 30 8.43921Z" fill="#6A1CFB"/>
<path fill-rule="evenodd" clip-rule="evenodd" d="M6.35195 6.8497C6.90013 6.62264 7.50333 6.56323 8.08527 6.67898C8.66721 6.79474 9.20176 7.08046 9.62132 7.50002L8.77953 8.34181L9.62132 7.50002L12.8587 10.7374C16.1824 8.62759 20.0456 7.50002 24 7.50002C27.9544 7.50002 31.8176 8.62759 35.1413 10.7374L38.3787 7.50001C38.7982 7.08045 39.3328 6.79474 39.9147 6.67898C40.4967 6.56323 41.0999 6.62264 41.6481 6.8497C42.1962 7.07677 42.6648 7.46128 42.9944 7.95463C43.3241 8.44798 43.5 9.028 43.5 9.62134V25.5C43.5 35.5613 34.644 43.5 24 43.5C13.356 43.5 4.5 35.5613 4.5 25.5V9.62134C4.5 9.028 4.67595 8.44798 5.00559 7.95463C5.33523 7.46128 5.80377 7.07676 6.35195 6.8497ZM34.4253 13.8749C31.392 11.6811 27.7438 10.5 24 10.5C20.2551 10.5 16.6058 11.6818 13.572 13.8768C12.9803 14.3193 12.1448 14.2661 11.614 13.7354L7.5 9.62134L8.56066 8.56068L7.5 9.62134L7.5 25.5C7.5 33.6641 14.7618 40.5 24 40.5C33.2382 40.5 40.5 33.6641 40.5 25.5V9.62134L36.386 13.7354C35.8528 14.2685 35.0151 14.3181 34.4253 13.8749Z" fill="#6A1CFB"/>
</svg>
