<svg width="24" height="24" viewBox="0 0 24 24" fill="none" xmlns="http://www.w3.org/2000/svg">
<circle cx="12" cy="12" r="12" fill="#F4F4F4"/>
<path fill-rule="evenodd" clip-rule="evenodd" d="M9.0214 10.5222C9.21664 10.3269 9.53322 10.3269 9.72851 10.5221L12 12.793L14.2715 10.5221C14.4668 10.3269 14.7834 10.3269 14.9786 10.5222C15.1738 10.7175 15.1738 11.0341 14.9785 11.2293L12.3535 13.8536C12.1583 14.0488 11.8417 14.0488 11.6465 13.8536L9.02149 11.2293C8.82621 11.0341 8.82616 10.7175 9.0214 10.5222Z" fill="#3877FF"/>
<path fill-rule="evenodd" clip-rule="evenodd" d="M12 6C12.2761 6 12.5 6.22386 12.5 6.5V13.4982C12.5 13.7743 12.2761 13.9982 12 13.9982C11.7239 13.9982 11.5 13.7743 11.5 13.4982V6.5C11.5 6.22386 11.7239 6 12 6Z" fill="#3877FF"/>
<path fill-rule="evenodd" clip-rule="evenodd" d="M6.5 13C6.77614 13 7 13.2239 7 13.5V17H17V13.5C17 13.2239 17.2239 13 17.5 13C17.7761 13 18 13.2239 18 13.5V17C18 17.2652 17.8946 17.5196 17.7071 17.7071C17.5196 17.8946 17.2652 18 17 18H7C6.73478 18 6.48043 17.8946 6.29289 17.7071C6.10536 17.5196 6 17.2652 6 17V13.5C6 13.2239 6.22386 13 6.5 13Z" fill="#3877FF"/>
</svg>
