<svg width="24" height="24" viewBox="0 0 24 24" fill="none" xmlns="http://www.w3.org/2000/svg">
<circle cx="12" cy="12" r="12" fill="#F4F4F4"/>
<path fill-rule="evenodd" clip-rule="evenodd" d="M10.75 13C11.0261 13 11.25 13.2239 11.25 13.5V16.5C11.25 17.0304 11.0393 17.5391 10.6642 17.9142C10.2891 18.2893 9.78043 18.5 9.25 18.5C8.97386 18.5 8.75 18.2761 8.75 18C8.75 17.7239 8.97386 17.5 9.25 17.5C9.51522 17.5 9.76957 17.3946 9.95711 17.2071C10.1446 17.0196 10.25 16.7652 10.25 16.5V13.5C10.25 13.2239 10.4739 13 10.75 13Z" fill="#3877FF"/>
<path fill-rule="evenodd" clip-rule="evenodd" d="M13.25 13C13.5261 13 13.75 13.2239 13.75 13.5V16.5C13.75 16.7652 13.8554 17.0196 14.0429 17.2071C14.2304 17.3946 14.4848 17.5 14.75 17.5C15.0261 17.5 15.25 17.7239 15.25 18C15.25 18.2761 15.0261 18.5 14.75 18.5C14.2196 18.5 13.7109 18.2893 13.3358 17.9142C12.9607 17.5391 12.75 17.0304 12.75 16.5V13.5C12.75 13.2239 12.9739 13 13.25 13Z" fill="#3877FF"/>
<path fill-rule="evenodd" clip-rule="evenodd" d="M13 13.5C13 13.2239 13.2239 13 13.5 13H14.5C15.0304 13 15.5391 13.2107 15.9142 13.5858C16.2893 13.9609 16.5 14.4696 16.5 15V15.5C16.5 15.7652 16.6054 16.0196 16.7929 16.2071C16.9804 16.3946 17.2348 16.5 17.5 16.5C17.7761 16.5 18 16.7239 18 17C18 17.2761 17.7761 17.5 17.5 17.5C16.9696 17.5 16.4609 17.2893 16.0858 16.9142C15.7107 16.5391 15.5 16.0304 15.5 15.5V15C15.5 14.7348 15.3946 14.4804 15.2071 14.2929C15.0196 14.1054 14.7652 14 14.5 14H13.5C13.2239 14 13 13.7761 13 13.5Z" fill="#3877FF"/>
<path fill-rule="evenodd" clip-rule="evenodd" d="M8.08579 13.5858C8.46086 13.2107 8.96957 13 9.5 13H10.5C10.7761 13 11 13.2239 11 13.5C11 13.7761 10.7761 14 10.5 14H9.5C9.23478 14 8.98043 14.1054 8.79289 14.2929C8.60536 14.4804 8.5 14.7348 8.5 15V15.5C8.5 16.0304 8.28929 16.5391 7.91421 16.9142C7.53914 17.2893 7.03043 17.5 6.5 17.5C6.22386 17.5 6 17.2761 6 17C6 16.7239 6.22386 16.5 6.5 16.5C6.76522 16.5 7.01957 16.3946 7.20711 16.2071C7.39464 16.0196 7.5 15.7652 7.5 15.5V15C7.5 14.4696 7.71071 13.9609 8.08579 13.5858Z" fill="#3877FF"/>
<path fill-rule="evenodd" clip-rule="evenodd" d="M8.24972 5C8.87958 4.99964 9.49937 5.15805 10.0518 5.46058C10.5219 5.71803 10.9304 6.07278 11.2506 6.49996L12.7494 6.49999C13.0696 6.0728 13.478 5.71804 13.9482 5.46059C14.5006 5.15805 15.1204 4.99964 15.7503 5C15.9286 5.0001 16.0934 5.09521 16.1828 5.24959C16.4631 5.73408 16.6312 6.27527 16.6748 6.83333C16.7117 7.30581 16.6584 7.7802 16.5188 8.23145C16.8286 8.76677 16.9951 9.37468 17 9.9961L17 10L17 10.5C17 11.4283 16.6313 12.3185 15.9749 12.9749C15.3185 13.6313 14.4283 14 13.5 14H10.5C9.57174 14 8.6815 13.6313 8.02513 12.9749C7.36875 12.3185 7 11.4283 7 10.5V9.9961C7.00484 9.37468 7.1714 8.76677 7.48122 8.23145C7.34156 7.78019 7.28834 7.30581 7.32521 6.83333C7.36875 6.27527 7.53688 5.73408 7.81723 5.24959C7.90656 5.09521 8.07136 5.0001 8.24972 5ZM8.54779 6.01598C8.42286 6.29883 8.34634 6.60143 8.32217 6.91113C8.29026 7.32012 8.35046 7.73107 8.49835 8.11372C8.55752 8.26681 8.53779 8.43919 8.44556 8.57495C8.15937 8.99622 8.00434 9.49279 8 10.002V10.5C8 11.163 8.26339 11.7989 8.73223 12.2678C9.20107 12.7366 9.83696 13 10.5 13H13.5C14.163 13 14.7989 12.7366 15.2678 12.2678C15.7366 11.7989 16 11.163 16 10.5V10.002C15.9957 9.49279 15.8406 8.99622 15.5544 8.57495C15.4622 8.43919 15.4425 8.26681 15.5016 8.11373C15.6495 7.73107 15.7097 7.32012 15.6778 6.91113C15.6537 6.60143 15.5771 6.29883 15.4522 6.01598C15.0941 6.05478 14.7461 6.16374 14.4285 6.33768C14.0234 6.55949 13.6808 6.87981 13.4324 7.26904C13.3405 7.41292 13.1816 7.49999 13.0109 7.49999L10.9891 7.49996C10.8184 7.49996 10.6595 7.41288 10.5676 7.26902C10.3191 6.87979 9.97654 6.55948 9.57151 6.33768C9.25388 6.16374 8.90589 6.05478 8.54779 6.01598Z" fill="#3877FF"/>
</svg>
