<svg width="24" height="24" viewBox="0 0 24 24" fill="none" xmlns="http://www.w3.org/2000/svg">
  <circle cx="12" cy="12" r="12" fill="#F4F4F4" />
  <path
    d="M18.6509 13.5958L16.9428 7.19048C16.9155 7.08809 16.8564 6.99703 16.774 6.93043C16.6916 6.86383 16.5901 6.82514 16.4843 6.81994C16.3784 6.81474 16.2737 6.8433 16.1851 6.90151C16.0966 6.95971 16.0288 7.04454 15.9916 7.14376L14.6392 10.75H9.36072L8.0084 7.14379C7.97119 7.04456 7.90342 6.95973 7.81486 6.90152C7.72631 6.84331 7.62155 6.81474 7.51571 6.81994C7.40986 6.82513 7.30841 6.86382 7.22598 6.93042C7.14355 6.99702 7.08441 7.08809 7.0571 7.19048L5.34904 13.5958C5.30951 13.745 5.31688 13.9028 5.37015 14.0477C5.42343 14.1926 5.52001 14.3176 5.6468 14.4057L11.5731 18.5085C11.6744 18.5783 11.7915 18.622 11.9139 18.6357C11.9287 18.6385 11.9437 18.6401 11.9588 18.6402C11.9605 18.6402 11.9623 18.6398 11.964 18.6398C11.976 18.6403 11.988 18.6411 12 18.6411C12.012 18.6411 12.024 18.6403 12.036 18.6398C12.0377 18.6398 12.0394 18.6402 12.0411 18.6402C12.0562 18.6401 12.0712 18.6385 12.086 18.6357C12.2084 18.622 12.3255 18.5783 12.4269 18.5085L18.3532 14.4057C18.4799 14.3176 18.5765 14.1926 18.6298 14.0477C18.6831 13.9028 18.6904 13.745 18.6509 13.5958ZM16.4598 7.31933L17.3746 10.75H15.1732L16.4598 7.31933ZM12 17.788L9.54821 11.25H14.4517L12 17.788ZM7.54022 7.31933L8.82672 10.75H6.62537L7.54022 7.31933ZM5.83213 13.7246L6.49204 11.25H9.01422L11.4853 17.8397L5.9314 13.9946C5.88915 13.9652 5.85695 13.9236 5.83919 13.8753C5.82143 13.827 5.81897 13.7744 5.83213 13.7246ZM18.0685 13.9946L12.5146 17.8397L14.9857 11.25H17.5079L18.1678 13.7246C18.181 13.7744 18.1785 13.827 18.1608 13.8753C18.143 13.9236 18.1108 13.9652 18.0685 13.9946Z"
    fill="#3877FF" />
</svg>