<svg width="24" height="24" viewBox="0 0 24 24" fill="none" xmlns="http://www.w3.org/2000/svg">
<circle cx="12" cy="12" r="12" fill="#F4F4F4"/>
<path fill-rule="evenodd" clip-rule="evenodd" d="M11.1594 10.4929C11.5276 10.4929 11.8261 10.7914 11.8261 11.1596V16.7248C11.8261 17.093 11.5276 17.3915 11.1594 17.3915C10.7912 17.3915 10.4927 17.093 10.4927 16.7248V11.1596C10.4927 10.7914 10.7912 10.4929 11.1594 10.4929Z" fill="#3877FF"/>
<path fill-rule="evenodd" clip-rule="evenodd" d="M8.37681 10.4929C8.745 10.4929 9.04348 10.7914 9.04348 11.1596V16.7248C9.04348 17.093 8.745 17.3915 8.37681 17.3915C8.00862 17.3915 7.71014 17.093 7.71014 16.7248V11.1596C7.71014 10.7914 8.00862 10.4929 8.37681 10.4929Z" fill="#3877FF"/>
<path fill-rule="evenodd" clip-rule="evenodd" d="M13.5942 11.8263C13.1253 11.8263 12.6755 12.0125 12.3439 12.3441C12.0124 12.6757 11.8261 13.1254 11.8261 13.5944C11.8261 13.9626 11.5276 14.261 11.1594 14.261C10.7912 14.261 10.4927 13.9626 10.4927 13.5944C10.4927 12.7718 10.8195 11.9829 11.4011 11.4013C11.9828 10.8197 12.7716 10.4929 13.5942 10.4929C14.4167 10.4929 15.2056 10.8197 15.7872 11.4013C16.3689 11.9829 16.6956 12.7718 16.6956 13.5944V16.7248C16.6956 17.093 16.3972 17.3915 16.029 17.3915C15.6608 17.3915 15.3623 17.093 15.3623 16.7248V13.5944C15.3623 13.1254 15.176 12.6757 14.8444 12.3441C14.5128 12.0125 14.0631 11.8263 13.5942 11.8263Z" fill="#3877FF"/>
<path d="M8.37679 9.42033C8.95309 9.42033 9.42027 8.95315 9.42027 8.37685C9.42027 7.80056 8.95309 7.33337 8.37679 7.33337C7.80049 7.33337 7.33331 7.80056 7.33331 8.37685C7.33331 8.95315 7.80049 9.42033 8.37679 9.42033Z" fill="#3877FF"/>
</svg>
