<svg width="48" height="48" viewBox="0 0 48 48" fill="none" xmlns="http://www.w3.org/2000/svg">
<path fill-rule="evenodd" clip-rule="evenodd" d="M17.25 18.75C17.25 17.9216 17.9216 17.25 18.75 17.25H29.25C30.0784 17.25 30.75 17.9216 30.75 18.75V29.25C30.75 30.0784 30.0784 30.75 29.25 30.75H18.75C17.9216 30.75 17.25 30.0784 17.25 29.25V18.75ZM20.25 20.25V27.75H27.75V20.25H20.25Z" fill="#6A1CFB"/>
<path fill-rule="evenodd" clip-rule="evenodd" d="M7.5 10.5C7.5 8.84315 8.84315 7.5 10.5 7.5H37.5C39.1569 7.5 40.5 8.84315 40.5 10.5V37.5C40.5 39.1569 39.1569 40.5 37.5 40.5H10.5C8.84315 40.5 7.5 39.1569 7.5 37.5V10.5ZM37.5 10.5H10.5V37.5H37.5V10.5Z" fill="#6A1CFB"/>
<path fill-rule="evenodd" clip-rule="evenodd" d="M37.5 19.5C37.5 18.6716 38.1716 18 39 18H43.5C44.3284 18 45 18.6716 45 19.5C45 20.3284 44.3284 21 43.5 21H39C38.1716 21 37.5 20.3284 37.5 19.5Z" fill="#6A1CFB"/>
<path fill-rule="evenodd" clip-rule="evenodd" d="M37.5 28.5C37.5 27.6716 38.1716 27 39 27H43.5C44.3284 27 45 27.6716 45 28.5C45 29.3284 44.3284 30 43.5 30H39C38.1716 30 37.5 29.3284 37.5 28.5Z" fill="#6A1CFB"/>
<path fill-rule="evenodd" clip-rule="evenodd" d="M3 19.5C3 18.6716 3.67157 18 4.5 18H9C9.82843 18 10.5 18.6716 10.5 19.5C10.5 20.3284 9.82843 21 9 21H4.5C3.67157 21 3 20.3284 3 19.5Z" fill="#6A1CFB"/>
<path fill-rule="evenodd" clip-rule="evenodd" d="M3 28.5C3 27.6716 3.67157 27 4.5 27H9C9.82843 27 10.5 27.6716 10.5 28.5C10.5 29.3284 9.82843 30 9 30H4.5C3.67157 30 3 29.3284 3 28.5Z" fill="#6A1CFB"/>
<path fill-rule="evenodd" clip-rule="evenodd" d="M28.5 37.5C29.3284 37.5 30 38.1716 30 39V43.5C30 44.3284 29.3284 45 28.5 45C27.6716 45 27 44.3284 27 43.5V39C27 38.1716 27.6716 37.5 28.5 37.5Z" fill="#6A1CFB"/>
<path fill-rule="evenodd" clip-rule="evenodd" d="M19.5 37.5C20.3284 37.5 21 38.1716 21 39V43.5C21 44.3284 20.3284 45 19.5 45C18.6716 45 18 44.3284 18 43.5V39C18 38.1716 18.6716 37.5 19.5 37.5Z" fill="#6A1CFB"/>
<path fill-rule="evenodd" clip-rule="evenodd" d="M28.5 3C29.3284 3 30 3.67157 30 4.5V9C30 9.82843 29.3284 10.5 28.5 10.5C27.6716 10.5 27 9.82843 27 9V4.5C27 3.67157 27.6716 3 28.5 3Z" fill="#6A1CFB"/>
<path fill-rule="evenodd" clip-rule="evenodd" d="M19.5 3C20.3284 3 21 3.67157 21 4.5V9C21 9.82843 20.3284 10.5 19.5 10.5C18.6716 10.5 18 9.82843 18 9V4.5C18 3.67157 18.6716 3 19.5 3Z" fill="#6A1CFB"/>
</svg>
