<svg width="48" height="48" viewBox="0 0 48 48" fill="none" xmlns="http://www.w3.org/2000/svg">
<path fill-rule="evenodd" clip-rule="evenodd" d="M27 20.25C27 19.4216 27.6716 18.75 28.5 18.75H34.5C35.3284 18.75 36 19.4216 36 20.25C36 21.0784 35.3284 21.75 34.5 21.75H28.5C27.6716 21.75 27 21.0784 27 20.25Z" fill="#6A1CFB"/>
<path fill-rule="evenodd" clip-rule="evenodd" d="M12 20.25C12 19.4216 12.6716 18.75 13.5 18.75H19.5C20.3284 18.75 21 19.4216 21 20.25C21 21.0784 20.3284 21.75 19.5 21.75H13.5C12.6716 21.75 12 21.0784 12 20.25Z" fill="#6A1CFB"/>
<path fill-rule="evenodd" clip-rule="evenodd" d="M16.5 15.75C17.3284 15.75 18 16.4216 18 17.25V23.25C18 24.0784 17.3284 24.75 16.5 24.75C15.6716 24.75 15 24.0784 15 23.25V17.25C15 16.4216 15.6716 15.75 16.5 15.75Z" fill="#6A1CFB"/>
<path fill-rule="evenodd" clip-rule="evenodd" d="M32.2535 8.95117C35.2372 8.95117 38.0987 10.1364 40.2085 12.2462C42.3182 14.356 43.5035 17.2175 43.5035 20.2012C43.5035 23.1849 42.3182 26.0463 40.2085 28.1561C38.0993 30.2653 35.239 31.4504 32.2563 31.4512C32.2553 31.4512 32.2544 31.4512 32.2535 31.4512L20.7381 31.4973L13.102 39.9385C13.0773 39.9673 13.0513 39.9953 13.0241 40.0225C12.009 41.0374 10.6967 41.7023 9.27787 41.9206C7.85906 42.1389 6.40761 41.8992 5.13431 41.2364C3.86101 40.5735 2.83217 39.522 2.19723 38.2346C1.56229 36.9471 1.3543 35.4908 1.60347 34.0771C1.60499 34.0684 1.6066 34.0598 1.60827 34.0511L4.66322 18.3394C4.66536 18.3248 4.66771 18.3103 4.67029 18.2957C5.13028 15.6911 6.49303 13.3318 8.51931 11.6319C10.545 9.93247 13.1045 9.00068 15.7486 8.99996C15.7493 8.99996 15.75 8.99996 15.7508 8.99996L32.2491 8.95118L32.2535 10.4508V8.95117ZM32.2556 11.9512C32.2549 11.9512 32.2542 11.9512 32.2535 11.9512L15.7553 12L15.751 12C13.8112 12.0001 11.9335 12.6835 10.4474 13.9302C8.97778 15.1632 7.98406 16.8691 7.63599 18.7543C7.63204 18.784 7.6272 18.8136 7.62145 18.8432L4.55585 34.6097C4.42067 35.3914 4.53683 36.1959 4.88781 36.9076C5.24057 37.6229 5.81217 38.2071 6.51959 38.5754C7.22701 38.9436 8.03341 39.0768 8.82167 38.9555C9.59612 38.8364 10.3134 38.4777 10.8732 37.9304L18.9575 28.9937C19.2405 28.6809 19.6421 28.5017 20.0639 28.5L32.2475 28.4512L32.2535 28.4512C34.4415 28.4512 36.54 27.582 38.0871 26.0348C39.6343 24.4876 40.5035 22.3892 40.5035 20.2012C40.5035 18.0131 39.6343 15.9147 38.0871 14.3675C36.5405 12.8209 34.4429 11.9517 32.2556 11.9512Z" fill="#6A1CFB"/>
<path fill-rule="evenodd" clip-rule="evenodd" d="M41.57 17.0355C42.3834 16.8779 43.1704 17.4096 43.3279 18.2229L46.3937 34.0522C46.3946 34.057 46.3956 34.0619 46.3964 34.0667C46.3971 34.0702 46.3977 34.0736 46.3983 34.077C46.6475 35.4908 46.4395 36.9471 45.8045 38.2345C45.1696 39.522 44.1408 40.5735 42.8675 41.2364C41.5942 41.8992 40.1427 42.1389 38.7239 41.9206C37.3051 41.7023 35.9928 41.0374 34.9776 40.0224C34.9496 39.9944 34.9229 39.9656 34.8976 39.936L26.823 30.9724C26.2685 30.3569 26.318 29.4084 26.9335 28.854C27.549 28.2995 28.4975 28.349 29.0519 28.9645L37.1294 37.9312C37.689 38.478 38.406 38.8364 39.1801 38.9555C39.9684 39.0768 40.7748 38.9436 41.4822 38.5754C42.1896 38.2071 42.7612 37.6229 43.114 36.9076C43.465 36.1958 43.5812 35.391 43.4458 34.6092L40.3826 18.7933C40.2251 17.98 40.7567 17.193 41.57 17.0355Z" fill="#6A1CFB"/>
</svg>
