<svg width="32" height="33" viewBox="0 0 32 33" fill="none" xmlns="http://www.w3.org/2000/svg">
<rect width="32" height="32" transform="translate(0 0.5)" fill="white"/>
<path d="M15.704 20.6H10.504L9.512 23H6.856L11.848 11.8H14.408L19.416 23H16.696L15.704 20.6ZM14.888 18.632L13.112 14.344L11.336 18.632H14.888ZM21.8616 23.128C21.4243 23.128 21.0563 22.9787 20.7576 22.68C20.459 22.3813 20.3096 22.008 20.3096 21.56C20.3096 21.1013 20.459 20.7333 20.7576 20.456C21.0563 20.168 21.4243 20.024 21.8616 20.024C22.299 20.024 22.667 20.168 22.9656 20.456C23.2643 20.7333 23.4136 21.1013 23.4136 21.56C23.4136 22.008 23.2643 22.3813 22.9656 22.68C22.667 22.9787 22.299 23.128 21.8616 23.128Z" fill="#100F10"/>
</svg>