<svg width="49" height="48" viewBox="0 0 49 48" fill="none" xmlns="http://www.w3.org/2000/svg">
<path fill-rule="evenodd" clip-rule="evenodd" d="M24.6365 6.00048C27.2058 5.9825 29.7533 6.47245 32.1327 7.44221C34.5156 8.4134 36.6827 9.84662 38.5092 11.6593C40.3356 13.4719 41.7852 15.6281 42.7744 18.0035C43.7637 20.379 44.273 22.9268 44.273 25.5V36C44.273 37.1935 43.7989 38.3381 42.9549 39.182C42.111 40.0259 40.9664 40.5 39.773 40.5H36.773C35.5795 40.5 34.4349 40.0259 33.591 39.182C32.7471 38.3381 32.273 37.1935 32.273 36V28.5C32.273 27.3065 32.7471 26.1619 33.591 25.318C34.4349 24.4741 35.5795 24 36.773 24H41.2046C41.0528 22.337 40.6492 20.7038 40.005 19.1568C39.1679 17.1468 37.9413 15.3224 36.3959 13.7886C34.8505 12.2548 33.0168 11.0421 31.0004 10.2203C28.9841 9.39855 26.8251 8.98397 24.6479 9.00047C24.6403 9.00053 24.6327 9.00053 24.6251 9.00047C22.4478 8.98397 20.2888 9.39855 18.2725 10.2203C16.2562 11.0421 14.4225 12.2548 12.8771 13.7886C11.3316 15.3224 10.105 17.1468 9.26799 19.1568C8.62379 20.7038 8.22013 22.337 8.06832 24H12.5C13.6935 24 14.8381 24.4741 15.682 25.318C16.5259 26.1619 17 27.3065 17 28.5V36C17 37.1935 16.5259 38.3381 15.682 39.182C14.8381 40.0259 13.6935 40.5 12.5 40.5H9.5C8.30653 40.5 7.16193 40.0259 6.31802 39.182C5.47411 38.3381 5 37.1935 5 36V25.5C5 22.9268 5.5093 20.379 6.49853 18.0035C7.48776 15.6281 8.93737 13.4719 10.7638 11.6593C12.5902 9.84662 14.7573 8.4134 17.1402 7.44221C19.5196 6.47245 22.0672 5.9825 24.6365 6.00048ZM8 27V36C8 36.3978 8.15804 36.7794 8.43934 37.0607C8.72064 37.342 9.10218 37.5 9.5 37.5H12.5C12.8978 37.5 13.2794 37.342 13.5607 37.0607C13.842 36.7794 14 36.3978 14 36V28.5C14 28.1022 13.842 27.7207 13.5607 27.4394C13.2794 27.158 12.8978 27 12.5 27H8ZM41.273 27H36.773C36.3751 27 35.9936 27.158 35.7123 27.4394C35.431 27.7207 35.273 28.1022 35.273 28.5V36C35.273 36.3978 35.431 36.7794 35.7123 37.0607C35.9936 37.342 36.3751 37.5 36.773 37.5H39.773C40.1708 37.5 40.5523 37.342 40.8336 37.0607C41.1149 36.7794 41.273 36.3978 41.273 36V27Z" fill="#6A1CFB"/>
</svg>
