<svg width="49" height="48" viewBox="0 0 49 48" fill="none" xmlns="http://www.w3.org/2000/svg">
<path fill-rule="evenodd" clip-rule="evenodd" d="M37.6297 9.22438C37.2654 9.07361 36.875 8.99612 36.4808 8.99634C36.0865 8.99655 35.6962 9.07448 35.3321 9.22565C35.05 9.34275 34.788 9.50204 34.5547 9.69762C34.5417 9.71254 34.5283 9.72727 34.5146 9.74178L28.5689 16.0304C28.158 16.4649 27.5283 16.6139 26.9663 16.4095L11.3641 10.736L8.83337 13.2667L20.811 21.2518C21.1849 21.501 21.4273 21.9048 21.4716 22.352C21.5159 22.7992 21.3573 23.2427 21.0396 23.5605L16.5396 28.0605C16.2583 28.3418 15.8767 28.4998 15.4789 28.4998H11.6002L9.24713 30.8529L14.7986 32.7313C15.241 32.881 15.5884 33.2282 15.7384 33.6705L17.6245 39.2329L19.9789 36.8785V32.9998C19.9789 32.5771 20.1573 32.1739 20.4702 31.8896L25.0063 27.7685C25.3274 27.4767 25.7591 27.3383 26.19 27.389C26.6209 27.4396 27.0088 27.6743 27.2535 28.0326L35.1972 39.6602L37.7428 37.1147L32.0692 21.5124C31.8642 20.9487 32.0148 20.317 32.4521 19.9063L38.5161 14.2124C38.543 14.1807 38.5714 14.1499 38.6014 14.12C38.8805 13.8415 39.1019 13.5108 39.2531 13.1467C39.4043 12.7826 39.4822 12.3922 39.4824 11.998C39.4826 11.6037 39.4051 11.2133 39.2544 10.8491C39.1036 10.4848 38.8825 10.1538 38.6037 9.87502C38.325 9.59625 37.994 9.37515 37.6297 9.22438ZM41.0514 15.8854C41.4556 15.4105 41.7839 14.8748 42.0238 14.297C42.3261 13.5688 42.482 12.7881 42.4824 11.9996C42.4828 11.2112 42.3279 10.4303 42.0263 9.70176C41.7248 8.97321 41.2826 8.31124 40.7251 7.7537C40.1675 7.19616 39.5055 6.75397 38.777 6.45243C38.0484 6.15089 37.2676 5.99591 36.4791 5.99634C35.6906 5.99677 34.91 6.15261 34.1817 6.45495C33.4535 6.75729 32.792 7.2002 32.2351 7.75836C32.1669 7.82671 32.1066 7.90007 32.0543 7.97726L27.0657 13.2535L11.4915 7.59014C10.9438 7.39098 10.3303 7.52708 9.91825 7.93917L5.41825 12.4392C5.10048 12.7569 4.94193 13.2004 4.98621 13.6476C5.03049 14.0948 5.27295 14.4986 5.64686 14.7479L17.6245 22.733L14.8576 25.4998H10.9789C10.5811 25.4998 10.1996 25.6579 9.91825 25.9392L5.41825 30.4392C5.0515 30.8059 4.90024 31.3361 5.01826 31.8412C5.13629 32.3462 5.50685 32.7545 5.99815 32.9207L13.1352 35.3356L15.5584 42.4815C15.7249 42.9726 16.1331 43.3428 16.6381 43.4606C17.143 43.5784 17.6729 43.4271 18.0396 43.0605L22.5396 38.5605C22.8209 38.2792 22.9789 37.8977 22.9789 37.4998V33.6637L25.7483 31.1476L33.7403 42.846C33.9922 43.2146 34.3951 43.4519 34.8396 43.4933C35.284 43.5348 35.7239 43.3762 36.0396 43.0605L40.5396 38.5605C40.9517 38.1484 41.0878 37.5349 40.8886 36.9872L35.2265 21.4165L40.8154 16.1687C40.9073 16.0823 40.9861 15.987 41.0514 15.8854Z" fill="#6A1CFB"/>
</svg>
